<svg xmlns="http://www.w3.org/2000/svg" xmlns:xlink="http://www.w3.org/1999/xlink" viewBox="0 0 808.93 788.45"><defs><style>.cls-1{isolation:isolate;}.cls-2{fill:url(#linear-gradient);}.cls-3{fill:#75cdd4;}.cls-4{fill:url(#linear-gradient-2);}.cls-5{fill:url(#linear-gradient-3);}.cls-6{opacity:0.84;mix-blend-mode:lighten;fill:url(#linear-gradient-4);}</style><linearGradient id="linear-gradient" x1="479.32" y1="507.28" x2="808.93" y2="507.28" gradientUnits="userSpaceOnUse"><stop offset="0" stop-color="#0056a0"/><stop offset="1" stop-color="#2484c6" stop-opacity="0"/></linearGradient><linearGradient id="linear-gradient-2" x1="0" y1="284.24" x2="332.23" y2="284.24" xlink:href="#linear-gradient"/><linearGradient id="linear-gradient-3" x1="374.41" y1="303.12" x2="374.08" y2="544.45" gradientUnits="userSpaceOnUse"><stop offset="0" stop-color="#2156a0"/><stop offset="1" stop-color="#2484c6" stop-opacity="0"/></linearGradient><linearGradient id="linear-gradient-4" x1="525.11" y1="328.77" x2="525.05" y2="372.63" gradientUnits="userSpaceOnUse"><stop offset="0.17" stop-color="#0056a0"/><stop offset="0.33" stop-color="#065da6" stop-opacity="0.84"/><stop offset="0.67" stop-color="#1470b6" stop-opacity="0.43"/><stop offset="1" stop-color="#2484c6" stop-opacity="0"/></linearGradient></defs><g class="cls-1"><g id="Layer_1" data-name="Layer 1"><polygon class="cls-2" points="808.93 394.22 514.94 680.79 479.32 660.95 699.63 333.76 808.93 394.22"/><polygon class="cls-3" points="808.93 394.22 699.63 333.76 332.23 130.54 292.85 108.77 404.5 0 808.93 394.22"/><polygon class="cls-3" points="514.94 680.79 404.5 788.45 0 394.22 117.7 459.71 479.32 660.95 514.94 680.79"/><polygon class="cls-4" points="332.23 130.54 330.89 132.83 117.7 459.71 0 394.22 292.85 108.77 332.23 130.54"/><polygon class="cls-5" points="297.59 303.23 297.59 369.83 384.41 369.83 384.41 544.46 450.89 544.46 450.89 303.23 297.59 303.23"/><polygon class="cls-6" points="496.17 303.23 496.17 367.85 554.03 367.85 547.67 303.23 496.17 303.23"/></g></g></svg>